<?xml version="1.0" standalone="no"?>
<!DOCTYPE svg PUBLIC "-//W3C//DTD SVG 20010904//EN"
 "http://www.w3.org/TR/2001/REC-SVG-20010904/DTD/svg10.dtd">
<svg version="1.0" xmlns="http://www.w3.org/2000/svg"
 width="128.000000pt" height="128.000000pt" viewBox="0 0 128.000000 128.000000"
 preserveAspectRatio="xMidYMid meet">
<metadata>
Created by potrace 1.11, written by Peter Selinger 2001-2013
</metadata>
<g transform="translate(0.000000,128.000000) scale(0.100000,-0.100000)"
fill="#000000" stroke="none">
<path d="M142 1179 c-62 -18 -63 -29 -60 -494 l3 -413 24 -26 c13 -14 33 -26
45 -28 14 -2 25 -14 32 -36 5 -18 20 -43 32 -55 22 -22 24 -22 402 -22 l380 0
27 27 c26 26 28 34 31 133 l4 105 34 0 c48 0 82 19 94 53 13 39 13 325 -1 365
-11 33 -49 52 -100 52 l-29 0 0 75 c0 97 -17 139 -63 154 -28 9 -36 19 -46 52
-20 68 -29 69 -428 68 -191 0 -363 -5 -381 -10z m746 -54 c9 -3 12 -42 12
-150 l0 -146 -255 3 c-328 4 -300 25 -300 -227 0 -251 -28 -229 301 -233 l255
-4 -3 -46 -3 -47 -45 -7 c-59 -9 -601 -9 -660 0 l-45 7 -5 385 c-3 212 -3 403
0 425 5 37 8 40 40 46 37 6 687 0 708 -6z m110 -203 c3 -87 2 -92 -18 -92 -19
0 -20 6 -20 96 0 86 2 95 18 92 14 -3 17 -17 20 -96z m-86 -142 l228 0 0 -174
0 -173 -31 -7 c-41 -8 -637 -8 -678 0 l-31 7 0 173 c0 204 -17 185 164 178 66
-2 222 -4 348 -4z m86 -512 l-3 -103 -45 -7 c-59 -9 -601 -9 -660 0 -36 6 -46
11 -48 29 l-3 21 323 4 c393 4 373 -2 393 121 4 28 11 37 26 37 19 0 20 -6 17
-102z"/>
<path d="M270 975 c0 -108 1 -115 20 -115 18 0 20 7 21 78 l0 77 30 -77 c27
-67 34 -78 55 -78 24 0 24 0 24 113 l1 112 34 -65 c24 -46 34 -79 35 -112 0
-44 2 -48 25 -48 23 0 25 3 25 53 1 38 9 67 30 107 l29 55 1 -107 c0 -101 1
-108 20 -108 18 0 20 7 21 83 1 81 1 81 13 42 18 -56 42 -57 58 -3 l13 43 3
-82 c2 -65 6 -83 17 -83 12 0 15 21 15 115 l0 115 -24 0 c-21 0 -27 -8 -39
-47 l-14 -48 -14 48 -13 47 -48 0 c-47 0 -48 -1 -72 -47 l-24 -48 -21 48 c-20
46 -21 47 -66 47 l-45 0 -1 -82 0 -83 -32 83 c-27 69 -35 82 -54 82 -23 0 -23
-2 -23 -115z"/>
<path d="M530 595 l0 -105 55 0 c48 0 55 2 55 20 0 16 -7 20 -30 20 l-30 0 0
85 c0 84 0 85 -25 85 l-25 0 0 -105z"/>
<path d="M673 676 c-25 -22 -28 -31 -28 -84 0 -77 20 -102 80 -102 60 0 80 25
80 102 0 53 -3 62 -28 84 -15 13 -39 24 -52 24 -13 0 -37 -11 -52 -24z m81
-57 c19 -55 -21 -114 -50 -74 -27 36 -9 109 24 103 9 -2 21 -15 26 -29z"/>
<path d="M863 676 c-25 -22 -28 -31 -28 -84 0 -81 19 -102 92 -102 l53 0 0 60
0 60 -35 0 c-31 0 -35 -3 -35 -25 0 -16 6 -25 16 -25 9 0 14 -6 12 -12 -8 -24
-42 -14 -52 15 -15 43 3 82 38 82 35 1 59 30 36 45 -26 17 -68 11 -97 -14z"/>
</g>
</svg>
